<svg width="137" height="133" viewBox="0 0 137 133" fill="none" xmlns="http://www.w3.org/2000/svg">
<path fill-rule="evenodd" clip-rule="evenodd" d="M90.5351 27.0068C67.3796 12.5129 46.0413 25.8012 29.5613 37.6487C15.8877 47.4787 5.75756 62.5666 16.0031 80.5882C26.0955 98.3404 49.3524 106.192 69.6353 108.138C89.8188 110.074 108.944 105.769 113.032 89.8967C118.278 69.5349 114.694 42.1288 90.5351 27.0068Z" fill="#F0C419" fill-opacity="0.09"/>
<path d="M48.309 77.1192C47.3687 75.058 43.0163 74.3461 43.0163 74.3461C43.9082 72.4141 45.9937 71.2923 48.1335 71.5937L48.309 77.1192Z" fill="#F3D55B"/>
<path d="M49.4129 79.6448H50.9663C53.0182 79.4578 54.9644 80.571 55.8094 82.4151C55.8094 82.4151 51.6517 83.0965 50.5825 85.051L49.4129 79.6448Z" fill="#F3D55B"/>
<path d="M54.8956 45.6924V45.6565C54.8956 45.6565 53.7908 39.9249 45.7284 40.2772C45.434 40.2893 45.1634 40.4391 45.0006 40.6801C44.8378 40.9211 44.8026 41.224 44.906 41.4947C46.3273 45.2243 50.0373 47.6294 54.0914 47.4496L54.8956 45.6924Z" fill="#24AE5F"/>
<path d="M57.2413 46.7924C59.5227 47.0226 61.3375 48.7722 61.612 51.0062C61.612 51.0062 58.2583 50.5131 56.3942 51.5172H54.8956L57.2413 46.7924Z" fill="#F3D55B"/>
<path d="M55.188 55.1867C55.5627 53.9315 55.9648 52.7033 56.3851 51.5198H56.3942C56.9439 49.9894 57.5721 48.4872 58.2766 47.0191C58.6604 46.2302 59.0625 45.4771 59.4829 44.7509C59.812 44.2008 59.816 43.52 59.4932 42.9663C59.1705 42.4126 58.5704 42.0707 57.9203 42.0702H57.9111C57.2647 42.0661 56.6654 42.4011 56.3394 42.9488C55.8368 43.8184 55.3525 44.7329 54.8956 45.6833V45.6922C54.6215 46.266 54.3473 46.8488 54.0915 47.4495C53.2965 49.3143 52.5746 51.2957 51.9349 53.3488L50.418 58.9253V58.9343C47.1466 72.6695 46.7354 87.5253 46.6806 91.3715C46.6764 91.6114 46.7711 91.8427 46.9431 92.0132C47.1151 92.1836 47.3499 92.2788 47.5944 92.277H49.422C49.9196 92.2771 50.3258 91.8866 50.3358 91.3984C50.5252 81.5536 51.5707 71.7426 53.461 62.0722L55.188 55.1867Z" fill="#4FBA6F"/>
<path d="M64.9464 70.0338H70.4291V75.4849H64.9464V70.0338Z" fill="#7F8C8D"/>
<path d="M71.4709 61.4898C71.9834 59.539 72.2476 57.5334 72.2577 55.5188C72.2577 49.0815 68.9863 42.0705 64.9473 42.0705V60.7188L71.4709 61.4898Z" fill="#7F8C8D"/>
<path d="M70.4218 70.0174L73.1609 65.3628L77.9683 68.0861L75.2292 72.7407L70.4218 70.0174Z" fill="#547580"/>
<path d="M62.3604 66.6448C60.3811 66.1082 58.4779 65.3311 56.6949 64.3317C51.0203 61.113 46.4604 54.8282 48.4799 51.3944L64.9474 60.7186L62.3604 66.6448Z" fill="#547580"/>
<path d="M69.5154 75.2426H65.8602C64.8509 75.2426 64.0327 76.0454 64.0327 77.0357V90.4839C64.0327 91.4742 64.8509 92.2771 65.8602 92.2771H69.5154C70.5248 92.2771 71.343 91.4742 71.343 90.4839V77.0357C71.343 76.0454 70.5248 75.2426 69.5154 75.2426Z" fill="#F0C419"/>
<path d="M90.5161 80.3807L92.3437 77.2751C92.8484 76.4175 92.5489 75.3209 91.6748 74.8257L79.8046 68.1016C78.9305 67.6064 77.8128 67.9002 77.3081 68.7578L75.4805 71.8635C74.9759 72.7211 75.2754 73.8177 76.1494 74.3129L88.0196 81.037C88.8937 81.5322 90.0114 81.2383 90.5161 80.3807Z" fill="#F0C419"/>
<path d="M73.1715 65.3806C73.1723 67.3012 72.1268 69.0758 70.4301 70.0337C68.7358 71.0019 66.6418 71.0019 64.9474 70.0337C63.6504 69.2973 62.7162 68.0731 62.3613 66.6447C62.258 66.231 62.2059 65.8065 62.206 65.3806C62.2052 63.4599 63.2507 61.6854 64.9474 60.7275V60.7185C66.6447 59.7602 68.7338 59.762 70.4294 60.7232C72.125 61.6844 73.17 63.4593 73.1715 65.3806Z" fill="#95A5A5"/>
<path d="M67.6879 67.1737C68.6972 67.1737 69.5154 66.3709 69.5154 65.3806C69.5154 64.3903 68.6972 63.5875 67.6879 63.5875C66.6785 63.5875 65.8603 64.3903 65.8603 65.3806C65.8603 66.3709 66.6785 67.1737 67.6879 67.1737Z" fill="#547580"/>
</svg>
