<svg width="137" height="133" viewBox="0 0 137 133" fill="none" xmlns="http://www.w3.org/2000/svg">
<path fill-rule="evenodd" clip-rule="evenodd" d="M46.1687 27.2231C69.3242 12.7292 90.6626 26.0175 107.143 37.865C120.816 47.695 130.946 62.7829 120.701 80.8045C110.608 98.5568 87.3515 106.409 67.0685 108.354C46.885 110.291 27.7601 105.985 23.6713 90.113C18.426 69.7512 22.0098 42.3451 46.1687 27.2231Z" fill="#EEFFF4"/>
<path d="M85.1526 69.6307H78.9601C84.7407 63.3937 85.0278 54.6716 84.8572 51.024C84.8277 50.394 84.4378 49.8572 83.8398 49.623C83.2321 49.3847 82.5417 49.5244 82.0808 49.9783L76.3595 55.6122C76.0483 55.9187 76.0445 56.4195 76.351 56.7308C76.6575 57.042 77.1582 57.0458 77.4696 56.7394L83.1907 51.1054C83.2004 51.096 83.2092 51.0873 83.231 51.0895C83.2508 51.0899 83.2681 51.0972 83.2771 51.1031C83.4478 54.7632 83.1382 63.8205 76.7111 69.6307H72.6864C72.7558 69.4855 72.8225 69.3392 72.8888 69.1927C74.4417 67.6252 77.3595 64.4172 79.2921 60.6847C79.4929 60.2968 79.3413 59.8195 78.9533 59.6187C78.5655 59.4178 78.0882 59.5692 77.8872 59.9574C76.8524 61.9561 75.4923 63.8219 74.2386 65.3364C74.6946 63.5327 74.9304 61.6824 74.9304 59.8321C74.9304 52.6495 71.4799 43.8606 69.9964 40.4152C69.7531 39.8505 69.1921 39.4856 68.567 39.4856C67.9419 39.4856 67.3809 39.8505 67.1377 40.4151C65.6541 43.8605 62.2035 52.6496 62.2035 59.832C62.2035 61.6822 62.4395 63.5326 62.8954 65.3363C61.6418 63.8218 60.2817 61.9561 59.2467 59.9574C59.0458 59.5694 58.5682 59.418 58.1806 59.6187C57.7926 59.8195 57.641 60.2969 57.8419 60.6847C59.7745 64.4172 62.6924 67.6252 64.2452 69.1927C64.3114 69.3392 64.3782 69.4855 64.4476 69.6307H60.4228C53.9972 63.822 53.6863 54.7678 53.8568 51.103C53.866 51.0971 53.8832 51.0899 53.9028 51.0895C53.9227 51.0871 53.9334 51.0961 53.943 51.1054L59.6726 56.7475C59.9837 57.0539 60.4846 57.0502 60.7912 56.739C61.0977 56.4276 61.0939 55.9268 60.7826 55.6203L55.0529 49.9783C54.5922 49.5245 53.9015 49.3848 53.294 49.623C52.6959 49.8572 52.3061 50.3941 52.2767 51.0239C52.106 54.6716 52.3931 63.3938 58.1738 69.6307H51.9814C50.2979 69.6307 48.9284 71.0002 48.9284 72.6836C48.9284 74.3671 50.2979 75.7366 51.9814 75.7366H52.5863L56.1275 90.9218C56.4794 92.4314 57.8078 93.4856 59.3579 93.4856H77.7762C79.3262 93.4856 80.6546 92.4314 81.0066 90.9218L84.5477 75.7366H85.1527C86.8362 75.7366 88.2057 74.3671 88.2057 72.6836C88.2056 71.0003 86.8361 69.6307 85.1526 69.6307ZM68.567 41.0961C70.0243 44.4892 73.3483 52.9812 73.3483 59.8321C73.3483 64.0194 72.0758 67.4125 70.9197 69.6308H69.358V54.25C69.358 53.813 69.0039 53.459 68.567 53.459C68.13 53.459 67.776 53.813 67.776 54.25V69.6307H66.2143C65.0581 67.4123 63.7855 64.0191 63.7855 59.832C63.7855 52.9815 67.1095 44.4891 68.567 41.0961ZM85.1526 74.1547H60.3933C59.9563 74.1547 59.6022 74.5087 59.6022 74.9457C59.6022 75.3827 59.9563 75.7367 60.3933 75.7367H82.9233L79.4659 90.5626C79.2818 91.3521 78.5869 91.9036 77.7762 91.9036H59.3579C58.547 91.9036 57.8523 91.3521 57.6681 90.5626L54.2108 75.7367H56.6956C57.1326 75.7367 57.4866 75.3827 57.4866 74.9457C57.4866 74.5087 57.1326 74.1547 56.6956 74.1547H51.9814C51.1703 74.1547 50.5104 73.4948 50.5104 72.6837C50.5104 71.8727 51.1703 71.2129 51.9814 71.2129H85.1526C85.9636 71.2129 86.6235 71.8727 86.6235 72.6837C86.6235 73.4948 85.9636 74.1547 85.1526 74.1547Z" fill="#0CA941"/>
</svg>
