<svg width="137" height="133" viewBox="0 0 137 133" fill="none" xmlns="http://www.w3.org/2000/svg">
<path fill-rule="evenodd" clip-rule="evenodd" d="M46.3161 27.2363C69.4715 12.7424 90.8099 26.0307 107.29 37.8782C120.963 47.7082 131.094 62.796 120.848 80.8177C110.756 98.5699 87.4988 106.422 67.2158 108.368C47.0324 110.304 27.9075 105.999 23.8187 90.1261C18.5734 69.7644 22.1571 42.3583 46.3161 27.2363Z" fill="#EEFFF4"/>
<g clip-path="url(#clip0_9616_8)">
<path d="M94.5965 80.0335C94.0968 78.1888 92.1967 77.0979 90.352 77.5967L85.6387 79.0392C86.2658 76.2218 84.7824 73.3603 82.1185 72.2487C82.55 70.9365 82.3259 69.4973 81.5163 68.3786C80.7071 67.2599 79.41 66.5971 78.0289 66.5966C77.9427 66.5966 77.8565 66.5966 77.7707 66.6042C77.0969 64.3563 75.1825 62.7022 72.8609 62.3615V61.133C72.8592 60.4475 73.1318 59.7893 73.6179 59.3056L75.9437 56.9799C77.0788 57.8971 78.4928 58.3989 79.9522 58.4027C82.1223 58.3291 84.173 57.3929 85.6501 55.8014C88.4296 53.0202 91.067 42.5724 91.3581 41.3897C91.43 41.097 91.3438 40.7879 91.1305 40.5751C90.9177 40.3618 90.6086 40.2756 90.3159 40.3475C89.1332 40.6386 78.6879 43.276 75.9042 46.0555C72.9118 49.0487 72.4837 52.9264 74.7249 55.7627L72.3991 58.0885C71.9714 58.5192 71.64 59.036 71.4268 59.6042C71.0949 59.2446 70.7139 58.9338 70.295 58.6811L67.3603 56.9239C68.132 55.3565 68.2199 53.5396 67.6033 51.9048C66.8657 50.0888 65.5219 48.5844 63.8005 47.6474C60.3948 45.6825 49.618 45.8385 48.4034 45.8633C48.1019 45.8696 47.8256 46.0328 47.675 46.294C47.524 46.5547 47.5206 46.8761 47.6662 47.1402C48.2545 48.2063 53.505 57.617 56.9099 59.5828C58.2498 60.3819 59.7757 60.8167 61.3356 60.8437C61.725 60.8441 62.114 60.8121 62.4984 60.7482C64.0672 60.49 65.4799 59.6467 66.4518 58.3879L69.4114 60.1581C70.226 60.6514 70.8102 61.4501 71.0331 62.3762C68.119 62.8519 65.9766 65.3665 65.9703 68.3193V68.3794C64.2392 68.133 62.4863 68.649 61.1648 69.7938C59.8434 70.9386 59.0826 72.5999 59.0796 74.3486H58.8126C56.859 74.3499 54.9101 74.5341 52.991 74.8991C51.7974 75.1338 50.6522 75.5699 49.605 76.1882V73.4873C49.605 73.0116 49.2193 72.6259 48.7437 72.6259H43.5757C43.1 72.6259 42.7144 73.0116 42.7144 73.4873V90.7139C42.7144 91.1895 43.1 91.5752 43.5757 91.5752H48.7437C49.2193 91.5752 49.605 91.1895 49.605 90.7139V87.9574C50.7149 88.648 51.9404 89.1313 53.2227 89.3849C54.8752 89.6965 56.5537 89.853 58.2355 89.8525H70.5957C72.1817 89.8509 73.7605 89.6418 75.2926 89.2314L92.1634 84.2539C94.0005 83.7601 95.0898 81.8705 94.5965 80.0335ZM77.1238 47.2718C78.9323 45.4629 85.6051 43.3891 89.3208 42.3848C88.3173 46.0967 86.2393 52.775 84.4338 54.5818C82.4907 56.5231 79.5888 57.5249 77.1743 55.7489L79.7309 53.1926L81.6113 54.133C82.0365 54.3471 82.5551 54.1759 82.7691 53.7503C82.9832 53.3247 82.812 52.8061 82.3864 52.592L81.0187 51.909L82.7759 50.1452L84.6613 51.0927C85.0865 51.3068 85.6051 51.1352 85.8191 50.71C86.0332 50.2844 85.862 49.7658 85.4364 49.5517L84.0582 48.8645L86.259 46.6628C86.4828 46.4467 86.5728 46.1262 86.4937 45.8251C86.4151 45.5239 86.18 45.2888 85.8784 45.2102C85.5773 45.1311 85.2572 45.2211 85.0411 45.4449L82.8411 47.6474L82.1581 46.278C81.9452 45.8524 81.4275 45.68 81.0023 45.8928C80.5767 46.1056 80.4043 46.6233 80.6171 47.0485L81.5604 48.9297L79.7991 50.6911L79.1161 49.3234C78.9028 48.8982 78.3855 48.7257 77.9599 48.9385C77.5343 49.1514 77.3623 49.6687 77.5751 50.0943L78.5155 51.9746L75.9593 54.5309C74.1794 52.1176 75.1867 49.214 77.1238 47.2718ZM62.2116 59.0487C60.6652 59.2509 59.0969 58.9124 57.7712 58.091C55.5611 56.8154 51.8281 50.9047 49.8927 47.5742C53.743 47.5835 60.7291 47.8644 62.9392 49.14C65.3718 50.5447 67.1235 53.172 65.8765 56.0365L62.7832 54.1881L63.2349 51.9805C63.3173 51.5204 63.0174 51.0784 62.559 50.9846C62.101 50.8913 61.6518 51.1802 61.5475 51.6361L61.2165 53.2511L59.0632 51.9662L59.5006 49.8272C59.5835 49.3671 59.2836 48.9251 58.8252 48.8313C58.3672 48.7379 57.918 49.0269 57.8133 49.4828L57.4966 51.0334L54.8264 49.4344C54.418 49.1905 53.8889 49.3234 53.6446 49.7317C53.4002 50.1401 53.5336 50.6692 53.9419 50.9135L56.6117 52.5096L55.506 53.4904C55.1494 53.8062 55.1157 54.3513 55.4316 54.7079C55.747 55.065 56.2921 55.0982 56.6491 54.7824L58.1624 53.4408L60.2896 54.713L59.2365 55.6475C58.8794 55.9629 58.8462 56.5076 59.1616 56.8642C59.4766 57.2213 60.0217 57.2549 60.3784 56.9395L61.8428 55.6475L64.9601 57.5123C64.2535 58.3324 63.2799 58.8766 62.2116 59.0487ZM65.1089 70.042C65.6397 70.0378 66.1663 70.1366 66.6592 70.333C66.959 70.4541 67.3018 70.3973 67.5461 70.1854C67.7909 69.9738 67.8961 69.6428 67.8187 69.3287C67.7362 68.9985 67.6942 68.6595 67.6929 68.3193C67.6921 66.0621 69.4358 64.188 71.6871 64.0261C73.9384 63.8646 75.9319 65.4699 76.2537 67.7044C76.2877 67.953 76.429 68.1746 76.6397 68.3109C76.8509 68.4472 77.1112 68.4846 77.3518 68.4131C77.5717 68.3496 77.8001 68.318 78.0289 68.3193C79.4559 68.3193 80.6129 69.4763 80.6129 70.9033C80.6137 71.397 80.4703 71.8807 80.2003 72.2941C80.0468 72.5305 80.0186 72.8266 80.1242 73.0873C80.2297 73.3481 80.4564 73.5407 80.7311 73.6034C82.6741 74.0647 84.0494 75.7966 84.0582 77.7939C84.0616 78.4378 83.9181 79.0741 83.6389 79.6545L79.4071 80.9507C79.196 79.6049 78.2072 78.5118 76.8891 78.1678L73.1027 77.1563L65.7633 75.003C65.2469 74.8525 64.7186 74.7368 64.1891 74.638C64.2253 74.5454 64.2451 74.4479 64.2476 74.3486C64.2476 73.8729 64.6333 73.4873 65.1089 73.4873C65.1968 73.4839 65.2843 73.4974 65.3672 73.5268C65.8075 73.7013 66.3059 73.4881 66.4834 73.049C66.6608 72.6104 66.451 72.1103 66.0132 71.9299C65.7255 71.8168 65.4185 71.7604 65.1089 71.7646C63.6819 71.7646 62.5249 72.9216 62.5249 74.3486C62.5249 74.3709 62.5363 74.3898 62.538 74.4121C62.0812 74.3734 61.6232 74.3486 61.164 74.3486H60.8023C60.8052 71.9711 62.7314 70.0449 65.1089 70.042ZM47.8823 89.8525H44.437V74.3486H47.8823V89.8525ZM91.6958 82.5922L74.8275 87.5735C73.4468 87.941 72.0244 88.1282 70.5957 88.1299H58.2355C56.6626 88.129 55.093 87.981 53.5474 87.6879C52.4401 87.4692 51.3832 87.0469 50.4302 86.4425L49.605 85.9257V78.2338L49.6988 78.167C50.7771 77.3864 52.0111 76.8481 53.3165 76.5881C55.1284 76.2445 56.9684 76.0717 58.8126 76.0713H61.164C62.5569 76.0708 63.9427 76.2681 65.2805 76.6567L72.6388 78.8155L76.4433 79.8316C77.3564 80.0701 77.904 81.0029 77.6672 81.9164V81.9281L77.6621 81.9387V81.9462C77.4565 82.6974 76.7747 83.2189 75.9963 83.2201C75.8474 83.221 75.6989 83.202 75.5551 83.1634L65.3234 80.4242C65.0231 80.335 64.698 80.4158 64.4743 80.6353C64.251 80.8548 64.1643 81.1783 64.248 81.4802C64.3317 81.7822 64.5727 82.0148 64.8772 82.0875L75.1105 84.8276C75.3995 84.9049 75.6972 84.9436 75.9963 84.9428C77.3829 84.9377 78.632 84.1033 79.1674 82.824L90.8231 79.2579C91.7446 79.0161 92.6883 79.5649 92.9344 80.4856C92.9726 80.6311 92.9916 80.7812 92.9903 80.9318C92.9848 81.7145 92.4536 82.3962 91.6958 82.5922Z" fill="#0CA941"/>
<path d="M70.3236 69.5751C70.5882 69.5751 70.838 69.4532 71.0016 69.245C71.1648 69.0368 71.2232 68.7647 71.1597 68.5077C71.145 68.4459 71.1379 68.3828 71.1383 68.3193C71.1383 67.8436 71.5239 67.458 71.9996 67.458C72.4189 67.4546 72.7773 67.7595 72.8412 68.1738C72.8698 68.4013 72.9888 68.6074 73.1717 68.7458C73.3543 68.8846 73.5852 68.9434 73.8119 68.9094C74.2821 68.8438 74.6109 68.4102 74.5466 67.9395C74.3523 66.5992 73.1545 65.6377 71.804 65.7374C70.4536 65.8375 69.4106 66.9651 69.4156 68.3193C69.4144 68.5224 69.4388 68.7252 69.488 68.922C69.5839 69.3056 69.9283 69.5751 70.3236 69.5751Z" fill="#0CA941"/>
<path d="M79.3142 75.9305C79.2624 76.1534 79.302 76.3877 79.4235 76.5816C79.5451 76.7755 79.7385 76.9134 79.9618 76.9643C80.3425 77.0598 80.6104 77.4008 80.6129 77.7937C80.6129 78.2693 80.9986 78.655 81.4742 78.655C81.9499 78.655 82.3355 78.2693 82.3355 77.7937C82.3313 76.5976 81.5087 75.5596 80.345 75.2829C79.8815 75.1773 79.4202 75.4671 79.3142 75.9305Z" fill="#0CA941"/>
<path d="M73.5604 72.2682C72.3264 71.9343 71.0344 72.5584 70.5285 73.7326C70.3438 74.1709 70.5495 74.6764 70.9881 74.861C71.4264 75.0461 71.9319 74.8404 72.117 74.4018C72.2839 74.0165 72.7104 73.8142 73.1141 73.9286C73.3354 73.9879 73.5238 74.133 73.6377 74.3315C73.7517 74.53 73.7824 74.7656 73.7223 74.9864C73.5991 75.446 73.8716 75.9183 74.3313 76.0416C74.4044 76.0609 74.4797 76.071 74.555 76.071C74.9449 76.0706 75.2855 75.809 75.3865 75.4326C75.7532 74.0548 74.9369 72.64 73.5604 72.2682Z" fill="#0CA941"/>
<path d="M77.1676 70.9031C77.6432 70.9031 78.0289 71.2888 78.0289 71.7644C78.0289 72.2401 78.4146 72.6258 78.8902 72.6258C79.3659 72.6258 79.7516 72.2401 79.7516 71.7644C79.7516 70.3374 78.5946 69.1804 77.1676 69.1804C76.6919 69.1804 76.3062 69.5661 76.3062 70.0418C76.3062 70.5174 76.6919 70.9031 77.1676 70.9031Z" fill="#0CA941"/>
</g>
<defs>
<clipPath id="clip0_9616_8">
<rect width="52" height="52" fill="white" transform="translate(42.7144 39.8945)"/>
</clipPath>
</defs>
</svg>
